PathFileType	4	(X/Y/Z)	C:/Users/opensim2020/Desktop/walking_exp_matlab/subject01_walking04_straight_03.trc	
DataRate	CameraRate	NumFrames	NumMarkers	Units	OrigDataRate	OrigDataStartFrame	OrigNumFrames	
100.00	100.00	4	43	mm	100.00	2260	211	
Frame#	Time	LFHD			RFHD			LBHD			RBHD			C7			T10			CLAV			STRN			RBAK			LSHO			LUPA			LELB			LFRM			LWRA			LWRB			LFIN			RSHO			RUPA			RELB			RFRM			RWRA			RWRB			RFIN			LASI			RASI			LPSI			RPSI			LTHI			LKNE			LTIB			LANK			LHEE			LTOE			RTHI			RKNE			RTIB			RANK			RHEE			RTOE			*39			*40			*41			*42			
		X1	Y1	Z1	X2	Y2	Z2	X3	Y3	Z3	X4	Y4	Z4	X5	Y5	Z5	X6	Y6	Z6	X7	Y7	Z7	X8	Y8	Z8	X9	Y9	Z9	X10	Y10	Z10	X11	Y11	Z11	X12	Y12	Z12	X13	Y13	Z13	X14	Y14	Z14	X15	Y15	Z15	X16	Y16	Z16	X17	Y17	Z17	X18	Y18	Z18	X19	Y19	Z19	X20	Y20	Z20	X21	Y21	Z21	X22	Y22	Z22	X23	Y23	Z23	X24	Y24	Z24	X25	Y25	Z25	X26	Y26	Z26	X27	Y27	Z27	X28	Y28	Z28	X29	Y29	Z29	X30	Y30	Z30	X31	Y31	Z31	X32	Y32	Z32	X33	Y33	Z33	X34	Y34	Z34	X35	Y35	Z35	X36	Y36	Z36	X37	Y37	Z37	X38	Y38	Z38	X39	Y39	Z39	X40	Y40	Z40	X41	Y41	Z41	X42	Y42	Z42	X43	Y43	Z43	

159	1.580	-1053.86560	455.08752	1673.87476	-939.53650	468.22693	1674.46655	-1048.58911	336.31464	1632.63318	-927.27533	347.22650	1632.50244	-1010.56592	288.17520	1436.06543	-1003.66449	261.25858	1140.75903	-1013.73376	433.95016	1370.21045	-1024.03796	480.85309	1219.02356	-932.85016	241.20120	1237.61499	-1173.54004	368.73648	1400.96326	-1261.60925	340.23489	1218.61169	-1267.05225	329.84839	1066.06213	-1289.53992	387.86472	965.05206	-1268.69702	487.54361	868.75311	-1292.77588	435.27380	852.29614	-1300.27271	495.67755	793.46167	-859.69000	373.69467	1393.65588	-758.46729	321.31586	1192.75867	-754.59503	321.86044	1067.11768	-726.02533	360.48380	951.76849	-748.58734	450.52280	843.48047	-708.10651	409.14200	840.50360	-710.85437	453.25452	767.51843	-1117.88391	438.25339	938.58899	-899.76569	446.70746	940.66553	-1059.15247	253.92105	945.46368	-914.35516	260.49686	950.35852	-1190.44690	470.68323	617.11053	-1185.41687	484.04422	484.70078	-1185.90222	350.57117	358.17542	-1131.85913	210.30125	190.98271	-1070.83557	165.99965	190.19592	-1148.67944	292.21600	70.38055	-855.15649	404.22717	604.65210	-888.21924	417.65833	447.17535	-884.38824	364.54016	277.73849	-943.26459	334.26370	76.75565	-992.98212	282.46362	40.61028	-948.34283	474.52515	37.71779	-960.61536	456.92593	1709.54626	-3101.85107	1973.08276	1023.87006	-3140.69702	2012.56494	1022.00330			 
160	1.590	-1053.85828	465.23547	1673.72583	-939.47058	478.56586	1674.44958	-1048.28589	346.35394	1633.00415	-926.85986	357.50876	1632.97852	-1009.77740	297.67935	1436.33850	-1002.99158	270.46863	1141.09229	-1013.36133	443.26352	1370.30493	-1023.57953	489.97720	1219.11292	-931.87372	250.62573	1238.02344	-1173.02014	377.68463	1400.91760	-1260.67175	347.54144	1218.64783	-1265.24500	335.52606	1066.35059	-1288.05212	390.96371	964.01892	-1267.82654	488.58981	865.40277	-1291.53259	435.69745	850.19604	-1299.37732	494.57861	789.84198	-859.16589	383.33466	1393.98767	-757.26752	332.05762	1193.15356	-752.83447	333.66046	1067.32397	-724.83197	374.69925	952.61749	-748.05237	466.98856	846.38641	-707.26422	425.96225	842.45764	-710.14996	471.85742	770.70227	-1116.68042	447.40494	939.42639	-898.76904	455.24323	940.62683	-1059.23120	263.01395	945.96649	-914.39386	269.00815	950.76782	-1190.29651	484.30914	619.42468	-1184.86401	499.04990	487.18143	-1185.23889	369.36157	356.10397	-1131.48828	234.59195	184.86124	-1069.90540	190.43730	181.36913	-1150.84924	321.60513	68.85148	-854.96832	409.66647	604.55127	-888.12018	420.91196	446.80826	-884.23688	366.00995	278.01846	-943.27118	334.69708	76.93627	-993.56110	282.41620	41.05474	-948.33838	474.68912	37.66962	-960.72131	467.27985	1709.42395	-3101.98511	1972.96362	1023.81836	-3140.64966	2012.48376	1021.83624			 
161	1.600	-1054.00806	475.28778	1673.57764	-939.41205	488.81714	1674.35986	-1048.00452	356.31714	1633.25244	-926.66010	367.62045	1633.29895	-1009.19922	307.10291	1436.53259	-1002.33722	279.48721	1141.36694	-1013.04285	452.59015	1370.32361	-1023.13257	499.16107	1219.15210	-931.01111	260.06323	1238.31738	-1172.66431	386.72253	1400.95898	-1259.74707	354.81512	1218.62244	-1263.47119	341.19778	1066.50378	-1286.56067	394.15561	963.02924	-1266.93506	489.67416	862.05371	-1290.10547	436.18607	848.16571	-1298.49609	493.55472	786.44122	-858.69659	393.04816	1394.29980	-756.12775	342.52231	1193.41626	-751.53284	345.27261	1067.45435	-723.69513	388.78607	953.45380	-747.59613	483.36569	849.42212	-706.54242	442.59015	844.57806	-709.46558	490.27744	774.07886	-1116.00122	456.66663	939.97906	-897.85797	463.63370	940.49786	-1059.30396	272.10687	946.45782	-914.52338	277.73645	950.95404	-1190.17188	497.73065	621.58289	-1184.38208	513.69623	489.49408	-1184.68286	388.20972	353.55328	-1131.05969	259.36740	178.09012	-1069.31360	215.42818	172.05301	-1152.98547	351.75497	67.26265	-854.85846	415.01407	604.21643	-887.85248	424.09586	446.29575	-884.18549	367.37198	278.10809	-943.38446	334.84698	77.30972	-993.48755	283.02466	41.41327	-948.28223	474.79861	37.57238	-960.65259	477.82864	1709.52527	-3101.89307	1973.18848	1023.41571	-3140.49390	2012.61279	1022.06586			 
162	1.610	-1053.94153	485.34586	1673.40881	-939.42462	499.00827	1674.29016	-1047.92554	366.23138	1633.46851	-926.37244	377.81998	1633.56873	-1008.67554	316.61743	1436.70386	-1001.54480	288.56424	1141.64148	-1012.78278	461.92258	1370.31445	-1022.74310	508.38666	1219.07813	-930.20721	269.50131	1238.59875	-1172.26123	395.71097	1400.87744	-1258.77612	362.04788	1218.50806	-1261.83813	347.11093	1066.65161	-1285.15808	397.43185	962.06586	-1266.09741	490.78723	858.90259	-1288.77112	436.77811	846.25555	-1297.56580	492.62006	783.16199	-858.34387	402.70901	1394.47449	-755.14337	353.10202	1193.70398	-750.25543	356.96637	1067.59094	-722.70575	402.77457	954.29962	-747.13519	499.53030	852.55121	-705.86163	459.15744	846.80505	-708.89648	508.53073	777.49255	-1115.04614	465.80420	940.43250	-897.04187	472.07507	940.24219	-1059.37402	281.39938	946.69525	-914.73175	286.18985	951.11334	-1190.16089	510.82108	623.61945	-1183.62183	528.19708	491.50256	-1184.37817	407.16510	350.78476	-1130.83972	284.73798	170.79295	-1068.99292	241.20488	161.87262	-1155.07849	382.34338	65.56409	-854.69598	420.24149	603.94293	-887.35944	427.33057	445.77628	-884.07849	369.23746	278.30484	-943.56500	334.96857	77.76341	-993.54901	283.15118	42.06637	-948.29242	474.93814	37.58284	-960.73297	487.95923	1709.24390	-3101.83716	1973.04749	1023.32654	-3140.68994	2012.51086	1021.98486			 
